<?xml version="1.0" encoding="UTF-8"?>
<svg width="32" height="32" viewBox="0 0 32 32" fill="none" xmlns="http://www.w3.org/2000/svg">
  <rect width="32" height="32" rx="8" fill="#0066FF"/>
  <path d="M19.7 6H12.3C12.1346 6 11.9764 6.06584 11.8577 6.18377C11.739 6.3017 11.6721 6.46386 11.6721 6.63333C11.6721 6.67905 11.6783 6.72453 11.6907 6.76867L14.3 16H12.3C12.1016 16 11.9166 16.0989 11.7991 16.2644C11.6816 16.43 11.644 16.6427 11.6978 16.8413L15.6978 27.8413C15.7615 28.0733 15.9721 28.2367 16.2154 28.2367C16.3602 28.2367 16.4992 28.1824 16.6031 28.0851C16.707 27.9878 16.7674 27.8534 16.7721 27.7113L17 20H19.7C19.8654 20 20.0236 19.9342 20.1423 19.8162C20.261 19.6983 20.3279 19.5361 20.3279 19.3667C20.3279 19.321 20.3217 19.2755 20.3093 19.2313L17.7 10H19.7C19.8984 10 20.0834 9.90114 20.2009 9.73558C20.3184 9.57002 20.356 9.35733 20.3022 9.15867L16.3022 1.15867C16.2385 0.926667 16.0279 0.763333 15.7846 0.763333C15.6398 0.763333 15.5008 0.817647 15.3969 0.914915C15.293 1.01218 15.2326 1.14663 15.2279 1.28867L15 6H19.7C19.8984 6 20.0834 6.09886 20.2009 6.26442C20.3184 6.42998 20.356 6.64267 20.3022 6.84133L19.7 6Z" fill="white"/>
</svg>
