<svg width="32" height="32" viewBox="0 0 32 32" fill="none" xmlns="http://www.w3.org/2000/svg">
<rect width="32" height="32" rx="4" fill="black"/>
<path fill-rule="evenodd" clip-rule="evenodd" d="M12.6867 22.9052C13.747 24.327 15.7349 24.9194 17.7229 24.9194C23.9518 24.9194 27 19.3507 27 15.0853C27 10.8199 24.4819 8.56872 20.506 8.56872C18.6506 8.56872 17.1928 9.16114 15.7349 10.5829L17.5904 3H11.0964L5.79518 24.564L5 28L12.2892 24.564L12.6867 22.9052ZM19.1457 11.4437L15.0636 16.9156C14.711 17.3882 15.032 18.0794 15.6041 18.0794H16.9408C17.3199 18.0794 17.6272 18.4017 17.6272 18.7994V22.1112C17.6272 22.7957 18.4519 23.094 18.854 22.555L22.9361 17.0831C23.2886 16.6105 22.9676 15.9193 22.3956 15.9193H21.0589C20.6798 15.9193 20.3725 15.597 20.3725 15.1993V11.8875C20.3725 11.203 19.5478 10.9047 19.1457 11.4437Z" fill="white"/>
</svg>
